<?xml version="1.0" encoding="utf-8"?>
<svg xmlns="http://www.w3.org/2000/svg" width="520" height="1020" viewBox="0 0 520 1020" fill="none">
<rect width="520" height="1020" rx="8" fill="#F9F9F7"/>




<rect x="160" y="25" width="190" height="42" rx="6" fill="#B8D8BE" stroke="#8FBF97" stroke-width="1"/>
<text x="255" y="51" text-anchor="middle" font-family="system-ui, -apple-system, sans-serif" font-size="13" font-weight="600" fill="#2D5A34">Session Start</text>


<line x1="255" y1="67" x2="255" y2="88" stroke="#757575" stroke-width="2"/>
<polygon points="248,84 255,96 262,84" fill="#757575"/>




<rect x="160" y="98" width="190" height="42" rx="6" fill="#EDEDEB" stroke="#D5D5D0" stroke-width="1"/>
<text x="255" y="124" text-anchor="middle" font-family="system-ui, -apple-system, sans-serif" font-size="13" font-weight="600" fill="#1E1E1E">UserPromptSubmit</text>


<line x1="255" y1="140" x2="255" y2="174" stroke="#757575" stroke-width="2"/>
<polygon points="248,170 255,182 262,170" fill="#757575"/>





<rect x="60" y="158" width="380" height="482" rx="8" fill="none" stroke="#D4A27F" stroke-width="2.5" stroke-dasharray="6 4"/>


<text x="85" y="185" font-family="system-ui, -apple-system, sans-serif" font-size="14" font-weight="800" fill="#D4A27F" letter-spacing="2">AGENTIC</text>
<text x="85" y="202" font-family="system-ui, -apple-system, sans-serif" font-size="14" font-weight="800" fill="#D4A27F" letter-spacing="2">LOOP</text>




<rect x="160" y="210" width="190" height="42" rx="6" fill="#FFF8E1" stroke="#D4A27F" stroke-width="1.5"/>
<text x="255" y="236" text-anchor="middle" font-family="system-ui, -apple-system, sans-serif" font-size="13" font-weight="600" fill="#1E1E1E">PreToolUse</text>


<line x1="255" y1="252" x2="255" y2="273" stroke="#757575" stroke-width="2"/>
<polygon points="248,269 255,281 262,269" fill="#757575"/>




<rect x="160" y="283" width="190" height="42" rx="6" fill="#FFF8E1" stroke="#D4A27F" stroke-width="1.5"/>
<text x="255" y="309" text-anchor="middle" font-family="system-ui, -apple-system, sans-serif" font-size="13" font-weight="600" fill="#1E1E1E">PermissionRequest</text>


<line x1="255" y1="325" x2="255" y2="346" stroke="#757575" stroke-width="2"/>
<polygon points="248,342 255,354 262,342" fill="#757575"/>




<rect x="160" y="356" width="190" height="42" rx="6" fill="#6AABD2" stroke="#4A8DB8" stroke-width="1"/>
<text x="255" y="382" text-anchor="middle" font-family="system-ui, -apple-system, sans-serif" font-size="13" font-weight="600" fill="#FFFFFF">[tool executes]</text>


<line x1="255" y1="398" x2="255" y2="419" stroke="#757575" stroke-width="2"/>
<polygon points="248,415 255,427 262,415" fill="#757575"/>




<rect x="110" y="429" width="290" height="42" rx="6" fill="#FFF8E1" stroke="#D4A27F" stroke-width="1.5"/>
<text x="255" y="455" text-anchor="middle" font-family="system-ui, -apple-system, sans-serif" font-size="13" font-weight="600" fill="#1E1E1E">PostToolUse / PostToolUseFailure</text>


<line x1="255" y1="471" x2="255" y2="492" stroke="#757575" stroke-width="2"/>
<polygon points="248,488 255,500 262,488" fill="#757575"/>




<rect x="115" y="502" width="280" height="42" rx="6" fill="#FFF8E1" stroke="#D4A27F" stroke-width="1.5"/>
<text x="255" y="528" text-anchor="middle" font-family="system-ui, -apple-system, sans-serif" font-size="13" font-weight="600" fill="#1E1E1E">SubagentStart / SubagentStop</text>


<line x1="255" y1="544" x2="255" y2="565" stroke="#757575" stroke-width="2"/>
<polygon points="248,561 255,573 262,561" fill="#757575"/>




<rect x="160" y="575" width="190" height="42" rx="6" fill="#FFF8E1" stroke="#D4A27F" stroke-width="1.5"/>
<text x="255" y="601" text-anchor="middle" font-family="system-ui, -apple-system, sans-serif" font-size="13" font-weight="600" fill="#1E1E1E">TaskCompleted</text>



<path d="M350 596 L410 596 L410 231 L362 231" fill="none" stroke="#D4A27F" stroke-width="2"/>
<polygon points="362,224 350,231 362,238" fill="#D4A27F"/>


<line x1="255" y1="617" x2="255" y2="654" stroke="#757575" stroke-width="2"/>
<polygon points="248,650 255,662 262,650" fill="#757575"/>




<rect x="160" y="664" width="190" height="42" rx="6" fill="#F8D0D0" stroke="#E0A0A0" stroke-width="1.5"/>
<text x="255" y="690" text-anchor="middle" font-family="system-ui, -apple-system, sans-serif" font-size="13" font-weight="600" fill="#1E1E1E">Stop</text>


<line x1="255" y1="706" x2="255" y2="727" stroke="#757575" stroke-width="2"/>
<polygon points="248,723 255,735 262,723" fill="#757575"/>




<rect x="160" y="737" width="190" height="42" rx="6" fill="#EDEDEB" stroke="#D5D5D0" stroke-width="1"/>
<text x="255" y="763" text-anchor="middle" font-family="system-ui, -apple-system, sans-serif" font-size="13" font-weight="600" fill="#1E1E1E">TeammateIdle</text>


<line x1="255" y1="779" x2="255" y2="800" stroke="#757575" stroke-width="2"/>
<polygon points="248,796 255,808 262,796" fill="#757575"/>




<rect x="160" y="810" width="190" height="42" rx="6" fill="#EDEDEB" stroke="#D5D5D0" stroke-width="1"/>
<text x="255" y="836" text-anchor="middle" font-family="system-ui, -apple-system, sans-serif" font-size="13" font-weight="600" fill="#1E1E1E">PreCompact</text>


<line x1="255" y1="852" x2="255" y2="873" stroke="#757575" stroke-width="2"/>
<polygon points="248,869 255,881 262,869" fill="#757575"/>




<rect x="160" y="883" width="190" height="42" rx="6" fill="#EDEDEB" stroke="#D5D5D0" stroke-width="1"/>
<text x="255" y="909" text-anchor="middle" font-family="system-ui, -apple-system, sans-serif" font-size="13" font-weight="600" fill="#1E1E1E">SessionEnd</text>




<path d="M350 904 L475 904 L475 46 L362 46" fill="none" stroke="#333333" stroke-width="2.5" stroke-dasharray="8 5"/>
<polygon points="362,38 350,46 362,54" fill="#333333"/>




<rect x="15" y="672" width="115" height="42" rx="6" fill="#F9F9F7" stroke="#B0B0B0" stroke-width="1.5" stroke-dasharray="5 3"/>
<text x="72" y="689" text-anchor="middle" font-family="system-ui, -apple-system, sans-serif" font-size="11" font-weight="600" fill="#757575">Notification</text>
<text x="72" y="705" text-anchor="middle" font-family="system-ui, -apple-system, sans-serif" font-size="10" fill="#9E9E9E">(Async)</text>




<rect x="15" y="726" width="115" height="42" rx="6" fill="#F9F9F7" stroke="#B0B0B0" stroke-width="1.5" stroke-dasharray="5 3"/>
<text x="72" y="743" text-anchor="middle" font-family="system-ui, -apple-system, sans-serif" font-size="11" font-weight="600" fill="#757575">ConfigChange</text>
<text x="72" y="759" text-anchor="middle" font-family="system-ui, -apple-system, sans-serif" font-size="10" fill="#9E9E9E">(Async)</text>




<rect x="15" y="780" width="115" height="42" rx="6" fill="#F9F9F7" stroke="#B0B0B0" stroke-width="1.5" stroke-dasharray="5 3"/>
<text x="72" y="797" text-anchor="middle" font-family="system-ui, -apple-system, sans-serif" font-size="11" font-weight="600" fill="#757575">WorktreeCreate</text>
<text x="72" y="813" text-anchor="middle" font-family="system-ui, -apple-system, sans-serif" font-size="10" fill="#9E9E9E">(Setup)</text>




<rect x="15" y="834" width="115" height="42" rx="6" fill="#F9F9F7" stroke="#B0B0B0" stroke-width="1.5" stroke-dasharray="5 3"/>
<text x="72" y="851" text-anchor="middle" font-family="system-ui, -apple-system, sans-serif" font-size="11" font-weight="600" fill="#757575">WorktreeRemove</text>
<text x="72" y="867" text-anchor="middle" font-family="system-ui, -apple-system, sans-serif" font-size="10" fill="#9E9E9E">(Teardown)</text>




<text x="483" y="500" text-anchor="middle" font-family="system-ui, -apple-system, sans-serif" font-size="11" fill="#757575" transform="rotate(-90 483 500)">resumed sessions</text>

</svg>